<svg width="30" height="27" viewBox="0 0 30 27" fill="none" xmlns="http://www.w3.org/2000/svg">
<path d="M10.6915 25.2393H18.7214C25.413 25.2393 28.0896 22.8393 28.0896 16.8393V9.63926C28.0896 3.63926 25.413 1.23926 18.7214 1.23926H10.6915C3.99988 1.23926 1.32324 3.63926 1.32324 9.63926V16.8393C1.32324 22.8393 3.99988 25.2393 10.6915 25.2393Z" stroke="#FF1D20" stroke-width="2" stroke-linecap="round" stroke-linejoin="round"/>
<path d="M14.7065 17.4393C17.2935 17.4393 19.3906 15.5589 19.3906 13.2393C19.3906 10.9197 17.2935 9.03931 14.7065 9.03931C12.1195 9.03931 10.0224 10.9197 10.0224 13.2393C10.0224 15.5589 12.1195 17.4393 14.7065 17.4393Z" stroke="#FF1D20" stroke-width="2" stroke-linecap="round" stroke-linejoin="round"/>
<path d="M22.2495 7.23926H22.265" stroke="#FF1D20" stroke-width="2" stroke-linecap="round" stroke-linejoin="round"/>
</svg>
