<svg width="24" height="24" viewBox="0 0 24 24" fill="none" xmlns="http://www.w3.org/2000/svg">
<path d="M0.837209 9.48837C0.379535 9.48837 0 9.10884 0 8.65116V5.86047C0 2.62326 2.63442 0 5.86047 0H8.65116C9.10884 0 9.48837 0.379535 9.48837 0.837209C9.48837 1.29488 9.10884 1.67442 8.65116 1.67442H5.86047C3.54977 1.67442 1.67442 3.54977 1.67442 5.86047V8.65116C1.67442 9.10884 1.29488 9.48837 0.837209 9.48837Z" fill="#FF1D20"/>
<path d="M23.1628 9.48837C22.7051 9.48837 22.3256 9.10884 22.3256 8.65116V5.86047C22.3256 3.54977 20.4503 1.67442 18.1396 1.67442H15.3489C14.8912 1.67442 14.5117 1.29488 14.5117 0.837209C14.5117 0.379535 14.8912 0 15.3489 0H18.1396C21.3656 0 24 2.62326 24 5.86047V8.65116C24 9.10884 23.6205 9.48837 23.1628 9.48837Z" fill="#FF1D20"/>
<path d="M18.1396 24H16.4651C16.0075 24 15.6279 23.6205 15.6279 23.1628C15.6279 22.7051 16.0075 22.3256 16.4651 22.3256H18.1396C20.4503 22.3256 22.3256 20.4503 22.3256 18.1396V16.4651C22.3256 16.0075 22.7051 15.6279 23.1628 15.6279C23.6205 15.6279 24 16.0075 24 16.4651V18.1396C24 21.3768 21.3656 24 18.1396 24Z" fill="#FF1D20"/>
<path d="M8.65116 24H5.86047C2.63442 24 0 21.3767 0 18.1395V15.3488C0 14.8911 0.379535 14.5116 0.837209 14.5116C1.29488 14.5116 1.67442 14.8911 1.67442 15.3488V18.1395C1.67442 20.4502 3.54977 22.3256 5.86047 22.3256H8.65116C9.10884 22.3256 9.48837 22.7051 9.48837 23.1628C9.48837 23.6204 9.10884 24 8.65116 24Z" fill="#FF1D20"/>
<path d="M8.6512 4.46509H6.41864C5.14608 4.46509 4.46515 5.13486 4.46515 6.41858V8.65113C4.46515 9.93486 5.14608 10.6046 6.41864 10.6046H8.6512C9.92375 10.6046 10.6047 9.93486 10.6047 8.65113V6.41858C10.6047 5.13486 9.92375 4.46509 8.6512 4.46509Z" fill="#FF1D20"/>
<path d="M17.5814 4.46509H15.3488C14.0763 4.46509 13.3953 5.13486 13.3953 6.41858V8.65113C13.3953 9.93486 14.0763 10.6046 15.3488 10.6046H17.5814C18.8539 10.6046 19.5349 9.93486 19.5349 8.65113V6.41858C19.5349 5.13486 18.8539 4.46509 17.5814 4.46509Z" fill="#FF1D20"/>
<path d="M8.6512 13.3953H6.41864C5.14608 13.3953 4.46515 14.065 4.46515 15.3488V17.5813C4.46515 18.865 5.14608 19.5348 6.41864 19.5348H8.6512C9.92375 19.5348 10.6047 18.865 10.6047 17.5813V15.3488C10.6047 14.065 9.92375 13.3953 8.6512 13.3953Z" fill="#FF1D20"/>
<path d="M17.5814 13.3953H15.3488C14.0763 13.3953 13.3953 14.065 13.3953 15.3488V17.5813C13.3953 18.865 14.0763 19.5348 15.3488 19.5348H17.5814C18.8539 19.5348 19.5349 18.865 19.5349 17.5813V15.3488C19.5349 14.065 18.8539 13.3953 17.5814 13.3953Z" fill="#FF1D20"/>
</svg>
