<svg width="29" height="26" viewBox="0 0 29 26" fill="none" xmlns="http://www.w3.org/2000/svg">
<path d="M14.2648 1C21.6523 1 27.6479 6.376 27.6479 13C27.6479 19.624 21.6523 25 14.2648 25C11.8023 25 9.48698 24.4 7.49288 23.356L0.881592 25L2.67498 19C1.53741 17.236 0.881592 15.184 0.881592 13C0.881592 8.56 3.57161 4.684 7.57318 2.608" stroke="#00B912" stroke-width="1.6" stroke-miterlimit="10" stroke-linecap="round" stroke-linejoin="round"/>
<path d="M20.9564 16.804C20.9564 17.02 20.9028 17.248 20.7824 17.464C20.6619 17.68 20.5147 17.884 20.3274 18.076C19.9928 18.4 19.6314 18.64 19.2299 18.784C18.8284 18.94 18.3868 19.012 17.9184 19.012C17.2358 19.012 16.4998 18.868 15.7369 18.568C14.9607 18.268 14.1979 17.872 13.435 17.38C12.6588 16.876 11.9361 16.312 11.2402 15.7C10.5442 15.076 9.92866 14.416 9.36657 13.732C8.81786 13.048 8.37616 12.364 8.05496 11.68C7.73377 10.996 7.57318 10.336 7.57318 9.71195C7.57318 9.30395 7.65347 8.90795 7.81406 8.54795C7.97466 8.17595 8.22897 7.83995 8.59032 7.53995C9.01858 7.15595 9.48696 6.97595 9.98214 6.97595C10.1695 6.97595 10.3569 7.01195 10.5309 7.08395C10.7049 7.15595 10.8654 7.26395 10.9859 7.41995L12.5383 9.38793C12.6588 9.54393 12.7525 9.67594 12.806 9.80794C12.8729 9.93994 12.8997 10.0599 12.8997 10.1799C12.8997 10.3239 12.8462 10.468 12.7525 10.612C12.6588 10.756 12.5383 10.9 12.3777 11.044L11.8692 11.524C11.7889 11.596 11.7621 11.668 11.7621 11.764C11.7621 11.812 11.7755 11.86 11.7889 11.908C11.8156 11.956 11.829 11.992 11.8424 12.028C11.9629 12.232 12.177 12.484 12.4714 12.796C12.7792 13.108 13.1004 13.432 13.4484 13.744C13.8097 14.068 14.1577 14.356 14.519 14.632C14.867 14.896 15.1614 15.076 15.389 15.184C15.4291 15.196 15.4693 15.22 15.5094 15.232C15.5629 15.256 15.6165 15.256 15.6834 15.256C15.8038 15.256 15.8841 15.22 15.9644 15.148L16.473 14.692C16.647 14.536 16.8076 14.428 16.9548 14.356C17.1154 14.272 17.2626 14.224 17.4366 14.224C17.5704 14.224 17.7042 14.248 17.8515 14.308C17.9987 14.368 18.1593 14.44 18.3199 14.548L20.5415 15.964C20.7155 16.072 20.8359 16.204 20.9162 16.348C20.9162 16.492 20.9564 16.636 20.9564 16.804Z" stroke="#00B912" stroke-width="1.6" stroke-miterlimit="10"/>
</svg>
