<svg width="26" height="17" viewBox="0 0 26 17" fill="none" xmlns="http://www.w3.org/2000/svg">
<path d="M13 5.7998C11.68 5.7998 10.6 6.8798 10.6 8.1998C10.6 9.5198 11.68 10.5998 13 10.5998C14.32 10.5998 15.4 9.5198 15.4 8.1998" stroke="#BDBDBD" stroke-width="2" stroke-linecap="round" stroke-linejoin="round"/>
<path d="M22.6 15.4C24.112 13.396 25 10.9 25 8.2C25 5.5 24.112 3.004 22.6 1" stroke="#BDBDBD" stroke-width="2" stroke-linecap="round" stroke-linejoin="round"/>
<path d="M3.4 15.4001C1.888 13.3961 1 10.9001 1 8.20005C1 7.94805 1.01199 7.69605 1.02399 7.45605" stroke="#BDBDBD" stroke-width="2" stroke-linecap="round" stroke-linejoin="round"/>
<path d="M3.40007 1C2.94407 1.612 2.53607 2.27201 2.20007 2.96801" stroke="#BDBDBD" stroke-width="2" stroke-linecap="round" stroke-linejoin="round"/>
<path d="M18.7609 12.5199C19.6609 11.3199 20.2009 9.81986 20.2009 8.19986C20.2009 6.57986 19.6609 5.07988 18.7609 3.87988" stroke="#BDBDBD" stroke-width="2" stroke-linecap="round" stroke-linejoin="round"/>
<path d="M7.24006 3.87988C6.34006 5.07988 5.80005 6.57986 5.80005 8.19986C5.80005 9.81986 6.34006 11.3199 7.24006 12.5199" stroke="#BDBDBD" stroke-width="2" stroke-linecap="round" stroke-linejoin="round"/>
</svg>
