<svg width="21" height="24" viewBox="0 0 21 24" fill="none" xmlns="http://www.w3.org/2000/svg">
<path d="M20.1991 6.11717C20.1776 6.11717 20.1453 6.11717 20.1129 6.11717C14.4152 5.52555 8.72822 5.30229 3.09507 5.89392L0.897829 6.11717C0.445456 6.16182 0.0469366 5.82694 0.00385344 5.35811C-0.0392297 4.88927 0.283894 4.48741 0.725496 4.44276L2.92274 4.21951C8.65283 3.61672 14.4583 3.85114 20.2745 4.44276C20.7161 4.48741 21.0392 4.90043 20.9961 5.35811C20.9638 5.79345 20.6084 6.11717 20.1991 6.11717Z" fill="white"/>
<path d="M6.73671 4.98974C6.69363 4.98974 6.65054 4.98974 6.59669 4.97858C6.16586 4.90044 5.86428 4.4651 5.93967 4.01859L6.17663 2.55627C6.34896 1.48464 6.58592 0 9.09547 0H11.9174C14.4378 0 14.6747 1.54046 14.8363 2.56743L15.0733 4.01859C15.1486 4.47626 14.8471 4.9116 14.4162 4.97858C13.9746 5.05672 13.5546 4.74416 13.4899 4.29765L13.253 2.8465C13.1022 1.87534 13.0699 1.68557 11.9282 1.68557H9.10624C7.96458 1.68557 7.94304 1.84185 7.78148 2.83534L7.53375 4.28649C7.46912 4.69951 7.12446 4.98974 6.73671 4.98974Z" fill="white"/>
<path d="M13.9634 24H7.04859C3.28959 24 3.13879 21.8456 3.02032 20.1042L2.32022 8.86327C2.2879 8.4056 2.63257 8.00375 3.07417 7.97026C3.52654 7.94793 3.90352 8.29398 3.93583 8.75165L4.63593 19.9926C4.75441 21.6893 4.7975 22.3256 7.04859 22.3256H13.9634C16.2253 22.3256 16.2684 21.6893 16.3761 19.9926L17.0762 8.75165C17.1085 8.29398 17.4963 7.94793 17.9379 7.97026C18.3795 8.00375 18.7241 8.39443 18.6918 8.86327L17.9917 20.1042C17.8732 21.8456 17.7224 24 13.9634 24Z" fill="white"/>
<path d="M12.2938 17.8604H8.70712C8.2655 17.8604 7.89929 17.4809 7.89929 17.0232C7.89929 16.5656 8.2655 16.186 8.70712 16.186H12.2938C12.7354 16.186 13.1016 16.5656 13.1016 17.0232C13.1016 17.4809 12.7354 17.8604 12.2938 17.8604Z" fill="white"/>
<path d="M13.1983 13.3951H7.81294C7.37133 13.3951 7.00513 13.0156 7.00513 12.5579C7.00513 12.1002 7.37133 11.7207 7.81294 11.7207H13.1983C13.6399 11.7207 14.0061 12.1002 14.0061 12.5579C14.0061 13.0156 13.6399 13.3951 13.1983 13.3951Z" fill="white"/>
</svg>
