<svg width="26" height="24" viewBox="0 0 26 24" fill="none" xmlns="http://www.w3.org/2000/svg">
<path d="M25.4596 17.028C25.4596 21.396 22.7325 24 18.1579 24H16.6623C15.9711 24 15.4056 23.46 15.4056 22.8V15.876C15.4056 15.552 15.682 15.276 16.0214 15.276L18.2333 15.24C18.4092 15.228 18.56 15.108 18.5977 14.94L19.0376 12.648C19.0753 12.432 18.8993 12.228 18.6606 12.228L15.9837 12.264C15.6318 12.264 15.3553 12 15.3427 11.676L15.2925 8.736C15.2925 8.544 15.4558 8.37601 15.6695 8.37601L18.6857 8.328C18.8994 8.328 19.0627 8.17201 19.0627 7.96801L19.0125 5.08799C19.0125 4.88399 18.8491 4.728 18.6354 4.728L15.2422 4.77601C13.156 4.81201 11.497 6.444 11.5347 8.436L11.5976 11.736C11.6102 12.072 11.3337 12.336 10.9818 12.348L9.47366 12.372C9.26001 12.372 9.09665 12.528 9.09665 12.732L9.13435 15.012C9.13435 15.216 9.29772 15.372 9.51137 15.372L11.0195 15.348C11.3714 15.348 11.6479 15.612 11.6604 15.936L11.7735 22.776C11.7861 23.448 11.2206 24 10.5168 24H7.62623C3.05163 24 0.324463 21.396 0.324463 17.016V6.972C0.324463 2.604 3.05163 0 7.62623 0H18.1579C22.7325 0 25.4596 2.604 25.4596 6.972V17.028Z" fill="#0038FF"/>
</svg>
