<svg width="24" height="24" viewBox="0 0 24 24" fill="none" xmlns="http://www.w3.org/2000/svg">
<path d="M18.4633 23.9738H5.53674C2.47814 23.9738 0 21.4845 0 18.4259V10.1543C0 8.63613 0.937675 6.72729 2.14326 5.78962L8.16 1.10125C9.96837 -0.30526 12.8595 -0.372237 14.7349 0.944968L21.6335 5.77846C22.9619 6.70497 24 8.69194 24 10.3106V18.4371C24 21.4845 21.5219 23.9738 18.4633 23.9738ZM9.18698 2.41846L3.17023 7.10683C2.37767 7.73194 1.67442 9.14962 1.67442 10.1543V18.4259C1.67442 20.558 3.40465 22.2994 5.53674 22.2994H18.4633C20.5954 22.2994 22.3256 20.5692 22.3256 18.4371V10.3106C22.3256 9.23892 21.5554 7.75427 20.6735 7.15148L13.7749 2.31799C12.5023 1.42497 10.4037 1.46962 9.18698 2.41846Z" fill="#BDBDBD"/>
<path d="M11.9999 19.5086C11.5423 19.5086 11.1627 19.1291 11.1627 18.6714V15.3226C11.1627 14.8649 11.5423 14.4854 11.9999 14.4854C12.4576 14.4854 12.8371 14.8649 12.8371 15.3226V18.6714C12.8371 19.1291 12.4576 19.5086 11.9999 19.5086Z" fill="#BDBDBD"/>
</svg>
