<svg width="24" height="24" viewBox="0 0 24 24" fill="none" xmlns="http://www.w3.org/2000/svg">
<path d="M0.837209 9.48837C0.379535 9.48837 0 9.10884 0 8.65116V5.86047C0 2.62326 2.63442 0 5.86047 0H8.65116C9.10884 0 9.48837 0.379535 9.48837 0.837209C9.48837 1.29488 9.10884 1.67442 8.65116 1.67442H5.86047C3.54977 1.67442 1.67442 3.54977 1.67442 5.86047V8.65116C1.67442 9.10884 1.29488 9.48837 0.837209 9.48837Z" fill="#FF1D20"/>
<path d="M23.1628 9.48837C22.7051 9.48837 22.3256 9.10884 22.3256 8.65116V5.86047C22.3256 3.54977 20.4502 1.67442 18.1395 1.67442H15.3488C14.8911 1.67442 14.5116 1.29488 14.5116 0.837209C14.5116 0.379535 14.8911 0 15.3488 0H18.1395C21.3656 0 24 2.62326 24 5.86047V8.65116C24 9.10884 23.6204 9.48837 23.1628 9.48837Z" fill="#FF1D20"/>
<path d="M18.1396 24H16.4651C16.0075 24 15.6279 23.6205 15.6279 23.1628C15.6279 22.7051 16.0075 22.3256 16.4651 22.3256H18.1396C20.4503 22.3256 22.3256 20.4503 22.3256 18.1396V16.4651C22.3256 16.0075 22.7051 15.6279 23.1628 15.6279C23.6205 15.6279 24 16.0075 24 16.4651V18.1396C24 21.3768 21.3656 24 18.1396 24Z" fill="#FF1D20"/>
<path d="M8.65116 24.0001H5.86047C2.63442 24.0001 0 21.3768 0 18.1396V15.3489C0 14.8913 0.379535 14.5117 0.837209 14.5117C1.29488 14.5117 1.67442 14.8913 1.67442 15.3489V18.1396C1.67442 20.4503 3.54977 22.3257 5.86047 22.3257H8.65116C9.10884 22.3257 9.48837 22.7052 9.48837 23.1629C9.48837 23.6206 9.10884 24.0001 8.65116 24.0001Z" fill="#FF1D20"/>
<path d="M8.65113 4.46509H6.41858C5.14602 4.46509 4.46509 5.13486 4.46509 6.41858V8.65113C4.46509 9.93486 5.14602 10.6046 6.41858 10.6046H8.65113C9.92369 10.6046 10.6046 9.93486 10.6046 8.65113V6.41858C10.6046 5.13486 9.92369 4.46509 8.65113 4.46509Z" fill="#FF1D20"/>
<path d="M17.5813 4.46509H15.3488C14.0762 4.46509 13.3953 5.13486 13.3953 6.41858V8.65113C13.3953 9.93486 14.0762 10.6046 15.3488 10.6046H17.5813C18.8539 10.6046 19.5348 9.93486 19.5348 8.65113V6.41858C19.5348 5.13486 18.8539 4.46509 17.5813 4.46509Z" fill="#FF1D20"/>
<path d="M8.65113 13.3953H6.41858C5.14602 13.3953 4.46509 14.065 4.46509 15.3488V17.5813C4.46509 18.865 5.14602 19.5348 6.41858 19.5348H8.65113C9.92369 19.5348 10.6046 18.865 10.6046 17.5813V15.3488C10.6046 14.065 9.92369 13.3953 8.65113 13.3953Z" fill="#FF1D20"/>
<path d="M17.5813 13.3953H15.3488C14.0762 13.3953 13.3953 14.065 13.3953 15.3488V17.5813C13.3953 18.865 14.0762 19.5348 15.3488 19.5348H17.5813C18.8539 19.5348 19.5348 18.865 19.5348 17.5813V15.3488C19.5348 14.065 18.8539 13.3953 17.5813 13.3953Z" fill="#FF1D20"/>
</svg>
