<svg width="24" height="25" viewBox="0 0 24 25" fill="none" xmlns="http://www.w3.org/2000/svg">
<path d="M15.7926 24.0486H15.6404C10.442 24.0486 7.93646 21.9996 7.50326 17.41C7.45643 16.93 7.80767 16.4968 8.29942 16.45C8.76774 16.4031 9.21265 16.7661 9.25948 17.2461C9.59902 20.9225 11.3318 22.2923 15.6521 22.2923H15.8043C20.5696 22.2923 22.2555 20.6064 22.2555 15.8411V8.20741C22.2555 3.44219 20.5696 1.75622 15.8043 1.75622H15.6521C11.3084 1.75622 9.5756 3.14949 9.25948 6.8961C9.20094 7.37613 8.79116 7.73908 8.29942 7.69225C7.80767 7.65713 7.45643 7.22393 7.49155 6.74389C7.88963 2.08405 10.4069 0 15.6404 0H15.7926C21.5413 0 24 2.45871 24 8.20741V15.8411C24 21.5898 21.5413 24.0486 15.7926 24.0486Z" fill="#FF0000"/>
<path d="M15.5099 12.9023H2.18609C1.70606 12.9023 1.30798 12.5043 1.30798 12.0242C1.30798 11.5442 1.70606 11.1461 2.18609 11.1461H15.5099C15.99 11.1461 16.388 11.5442 16.388 12.0242C16.388 12.5043 15.99 12.9023 15.5099 12.9023Z" fill="#FF0000"/>
<path d="M4.79741 16.8247C4.57496 16.8247 4.3525 16.7427 4.17688 16.5671L0.254652 12.6449C-0.084884 12.3053 -0.084884 11.7434 0.254652 11.4038L4.17688 7.48158C4.51642 7.14204 5.07841 7.14204 5.41794 7.48158C5.75748 7.82112 5.75748 8.38311 5.41794 8.72264L2.11625 12.0244L5.41794 15.3261C5.75748 15.6656 5.75748 16.2276 5.41794 16.5671C5.25403 16.7427 5.01987 16.8247 4.79741 16.8247Z" fill="#FF0000"/>
</svg>
