<svg width="28" height="29" viewBox="0 0 28 29" fill="none" xmlns="http://www.w3.org/2000/svg">
<path d="M13.0899 14.9101C16.6549 14.9101 19.545 12.0201 19.545 8.45505C19.545 4.89003 16.6549 2 13.0899 2C9.52492 2 6.63489 4.89003 6.63489 8.45505C6.63489 12.0201 9.52492 14.9101 13.0899 14.9101Z" stroke="#292D32" stroke-width="2.09389" stroke-linecap="round" stroke-linejoin="round"/>
<path d="M2 27.8203C2 22.8241 6.97043 18.7832 13.0898 18.7832" stroke="#292D32" stroke-width="2.09389" stroke-linecap="round" stroke-linejoin="round"/>
<path d="M21.0941 27.0457C23.3757 27.0457 25.2254 25.196 25.2254 22.9144C25.2254 20.6328 23.3757 18.7832 21.0941 18.7832C18.8125 18.7832 16.9629 20.6328 16.9629 22.9144C16.9629 25.196 18.8125 27.0457 21.0941 27.0457Z" stroke="#292D32" stroke-width="2.09389" stroke-linecap="round" stroke-linejoin="round"/>
<path d="M26 27.8203L24.709 26.5293" stroke="#292D32" stroke-width="2.09389" stroke-linecap="round" stroke-linejoin="round"/>
</svg>
